<?xml version="1.0" encoding="UTF-8"?>
<svg width="256px" height="256px" viewBox="0 0 256 256" version="1.1" xmlns="http://www.w3.org/2000/svg" xmlns:xlink="http://www.w3.org/1999/xlink">
    <g id="icon-256x256" stroke="none" stroke-width="1" fill="none" fill-rule="evenodd">
        <g id="logo---indigo/purple" transform="translate(12.000000, 0.000000)">
            <path d="M145.454545,29.0909091 C145.454545,46.5454545 128,98.9090909 128,98.9090909 L104.727273,98.9090909 C104.727273,98.9090909 87.2727273,46.5454545 87.2727273,29.0909091 C87.2727273,13.0327273 100.305455,0 116.363636,0 C132.421818,0 145.454545,13.0327273 145.454545,29.0909091 Z" id="Path" fill="#4338CA" fill-rule="nonzero"></path>
            <path d="M116.363636,116.363636 C103.563636,116.363636 93.0909091,126.836364 93.0909091,139.636364 C93.0909091,152.436364 103.563636,162.909091 116.363636,162.909091 C129.163636,162.909091 139.636364,152.436364 139.636364,139.636364 C139.636364,126.836364 129.163636,116.363636 116.363636,116.363636 Z" id="Path" fill="#4338CA" fill-rule="nonzero"></path>
            <path d="M163.84,59.4618182 C165.934545,50.7345455 167.68,42.3563636 168.378182,35.4909091 C206.545455,54.5745455 232.727273,94.0218182 232.727273,139.636364 C232.727273,203.869091 180.596364,256 116.363636,256 C52.1309091,256 0,203.869091 0,139.636364 C0,94.0218182 26.1818182,54.5745455 64.3490909,35.4909091 C65.1636364,42.3563636 66.7927273,50.8509091 68.8872727,59.4618182 C41.6581818,75.7527273 23.2727273,105.541818 23.2727273,139.636364 C23.2727273,191.069091 64.9309091,232.727273 116.363636,232.727273 C167.796364,232.727273 209.454545,191.069091 209.454545,139.636364 C209.454545,105.541818 191.069091,75.7527273 163.84,59.4618182 Z" id="Path" fill="#9F5ADB"></path>
            <path d="M186.181818,139.636364 C186.181818,178.152727 154.88,209.454545 116.363636,209.454545 C77.8472727,209.454545 46.5454545,178.152727 46.5454545,139.636364 C46.5454545,116.363636 57.9490909,95.7672727 75.4036364,83.0836364 C78.08,92.5090909 82.9672727,107.170909 82.9672727,107.170909 C74.8218182,115.549091 69.8181818,127.069091 69.8181818,139.636364 C69.8181818,165.352727 90.6472727,186.181818 116.363636,186.181818 C142.08,186.181818 162.909091,165.352727 162.909091,139.636364 C162.909091,127.069091 157.905455,115.549091 149.76,107.170909 C149.76,107.170909 154.530909,92.9745455 157.323636,83.0836364 C174.778182,95.7672727 186.181818,116.363636 186.181818,139.636364 Z" id="Path" fill="#9F5ADB"></path>
        </g>
    </g>
</svg>