<?xml version="1.0" encoding="UTF-8"?>
<svg width="500px" height="500px" viewBox="0 0 500 500" version="1.1" xmlns="http://www.w3.org/2000/svg" xmlns:xlink="http://www.w3.org/1999/xlink">
    <g id="favicon-bg-white" stroke="none" stroke-width="1" fill="none" fill-rule="evenodd">
        <rect fill="#FFFFFF" x="0" y="0" width="500" height="500"></rect>
        <g id="logo---indigo/purple" transform="translate(23.000000, 0.000000)">
            <path d="M284.090909,56.8181818 C284.090909,90.9090909 250,193.181818 250,193.181818 L204.545455,193.181818 C204.545455,193.181818 170.454545,90.9090909 170.454545,56.8181818 C170.454545,25.4545455 195.909091,0 227.272727,0 C258.636364,0 284.090909,25.4545455 284.090909,56.8181818 Z" id="Path" fill="#4338CA" fill-rule="nonzero"></path>
            <path d="M227.272727,227.272727 C202.272727,227.272727 181.818182,247.727273 181.818182,272.727273 C181.818182,297.727273 202.272727,318.181818 227.272727,318.181818 C252.272727,318.181818 272.727273,297.727273 272.727273,272.727273 C272.727273,247.727273 252.272727,227.272727 227.272727,227.272727 Z" id="Path" fill="#4338CA" fill-rule="nonzero"></path>
            <path d="M320,116.136364 C324.090909,99.0909091 327.5,82.7272727 328.863636,69.3181818 C403.409091,106.590909 454.545455,183.636364 454.545455,272.727273 C454.545455,398.181818 352.727273,500 227.272727,500 C101.818182,500 0,398.181818 0,272.727273 C0,183.636364 51.1363636,106.590909 125.681818,69.3181818 C127.272727,82.7272727 130.454545,99.3181818 134.545455,116.136364 C81.3636364,147.954545 45.4545455,206.136364 45.4545455,272.727273 C45.4545455,373.181818 126.818182,454.545455 227.272727,454.545455 C327.727273,454.545455 409.090909,373.181818 409.090909,272.727273 C409.090909,206.136364 373.181818,147.954545 320,116.136364 Z" id="Path" fill="#9F5ADB"></path>
            <path d="M363.636364,272.727273 C363.636364,347.954545 302.5,409.090909 227.272727,409.090909 C152.045455,409.090909 90.9090909,347.954545 90.9090909,272.727273 C90.9090909,227.272727 113.181818,187.045455 147.272727,162.272727 C152.5,180.681818 162.045455,209.318182 162.045455,209.318182 C146.136364,225.681818 136.363636,248.181818 136.363636,272.727273 C136.363636,322.954545 177.045455,363.636364 227.272727,363.636364 C277.5,363.636364 318.181818,322.954545 318.181818,272.727273 C318.181818,248.181818 308.409091,225.681818 292.5,209.318182 C292.5,209.318182 301.818182,181.590909 307.272727,162.272727 C341.363636,187.045455 363.636364,227.272727 363.636364,272.727273 Z" id="Path" fill="#9F5ADB"></path>
        </g>
    </g>
</svg>